<?xml version="1.0" encoding="UTF-8" standalone="no"?>
<!-- Created with Inkscape (http://www.inkscape.org/) -->

<svg
   width="512"
   height="512"
   viewBox="0 0 512 512"
   version="1.1"
   id="svg1"
   inkscape:version="1.4.2 (ebf0e940, 2025-05-08)"
   sodipodi:docname="culmat_logo.svg"
   xmlns:inkscape="http://www.inkscape.org/namespaces/inkscape"
   xmlns:sodipodi="http://sodipodi.sourceforge.net/DTD/sodipodi-0.dtd"
   xmlns="http://www.w3.org/2000/svg"
   xmlns:svg="http://www.w3.org/2000/svg">
  <sodipodi:namedview
     id="namedview1"
     pagecolor="#ffffff"
     bordercolor="#000000"
     borderopacity="0.25"
     inkscape:showpageshadow="2"
     inkscape:pageopacity="0.0"
     inkscape:pagecheckerboard="0"
     inkscape:deskcolor="#d1d1d1"
     inkscape:document-units="px"
     inkscape:zoom="0.5"
     inkscape:cx="265"
     inkscape:cy="257"
     inkscape:window-width="1920"
     inkscape:window-height="942"
     inkscape:window-x="0"
     inkscape:window-y="25"
     inkscape:window-maximized="1"
     inkscape:current-layer="layer1" />
  <defs
     id="defs1" />
  <g
     inkscape:label="Layer 1"
     inkscape:groupmode="layer"
     id="layer1">
    <text
       xml:space="preserve"
       style="font-size:452.087px;text-align:start;writing-mode:lr-tb;direction:ltr;text-anchor:start;fill:#000000;stroke-width:37.674"
       x="-538.84064"
       y="371.13965"
       id="text1-2"><tspan
         sodipodi:role="line"
         id="tspan1-3"
         x="-538.84064"
         y="371.13965"
         style="font-style:normal;font-variant:normal;font-weight:normal;font-stretch:normal;font-family:Krungthep;-inkscape-font-specification:Krungthep;stroke-width:37.674" /></text>
    <path
       style="font-size:452.087px;font-family:Krungthep;-inkscape-font-specification:Krungthep;stroke-width:2;fill:#7f5a0e;fill-opacity:1;stroke:#000000;stroke-opacity:1;stroke-dasharray:none"
       d="m 283.82916,178.02814 h -52.73797 c -14.59415,0 -27.11528,5.22405 -37.56336,15.67213 -10.44808,10.44808 -15.67213,22.9692 -15.67213,37.56336 v 52.73797 c 0,14.59417 5.14112,27.11528 15.42338,37.56337 10.44808,10.44808 23.05212,15.67212 37.81211,15.67212 14.42832,0 26.7836,-5.22404 37.06584,-15.67212 10.44808,-10.44809 15.67213,-22.9692 15.67213,-37.56337 z M 390.30014,496.44605 H 204.47346 c -50.74787,0 -94.44739,-18.24269 -131.098627,-54.72808 C 36.889444,405.06674 18.646752,361.45012 18.646752,310.86812 v -106.471 c 0,-50.74785 18.242692,-94.36446 54.728081,-130.849849 C 110.02607,37.061885 153.64268,18.819192 204.22468,18.819192 h 106.471 c 50.58201,0 94.11571,18.325607 130.60108,54.976856 36.65123,36.485362 54.97685,80.019072 54.97685,130.601072 v 132.83997 c 0,14.42831 -5.22403,26.94943 -15.67214,37.56336 -10.28224,10.44808 -22.80336,15.67213 -37.56336,15.67213 H 337.06466 221.63817 c -22.5546,0 -44.36292,-10.28224 -65.42493,-30.84672 -21.06201,-20.73033 -31.59302,-45.93842 -31.59302,-75.62426 v -52.73797 c 0,-29.35416 10.53101,-54.39639 31.59302,-75.12672 21.06201,-20.89617 46.02133,-31.34425 74.87795,-31.34425 h 105.97347 v 186.07546 c 0,17.57931 8.78966,26.36897 26.36897,26.36897 h 53.23549 c 17.57933,0 26.36899,-8.78966 26.36899,-26.36897 v -106.471 c 0,-35.65616 -12.93573,-66.58582 -38.80718,-92.78896 C 378.52531,85.239172 347.3469,72.054676 310.69568,72.054676 h -106.471 c -35.65616,0 -66.66873,12.852811 -93.03771,38.558434 -26.203144,25.70561 -39.304721,56.96695 -39.304721,93.78401 v 106.471 c 0,35.65616 12.852801,66.66873 38.558421,93.03771 25.87145,26.20315 57.21571,39.30472 94.03279,39.30472 h 185.82668 z"
       id="text1-3-0"
       aria-label="@"
       sodipodi:nodetypes="csssscscsccscsscsscsscssscsscscssssscsscsscscc" />
    <path
       id="text1-3-8-2"
       style="font-size:452.087px;font-family:Krungthep;-inkscape-font-specification:Krungthep;fill:#f5ac1b;stroke-width:2;fill-opacity:1;stroke:#000000;stroke-opacity:1;stroke-dasharray:none"
       d="m 230.90781,124.8323 c -28.85664,0 -53.8142,10.44646 -74.87621,31.34263 -21.06202,20.73032 -31.59302,45.77241 -31.59302,75.12656 v 52.73938 c 0,29.68583 10.531,54.89422 31.59302,75.62455 21.06201,20.56449 42.87092,30.84741 65.42553,30.84741 h 115.42463 c 0.0742,0 -67.16763,-69.23866 -68.40777,-69.23866 -10.22466,10.25417 -23.27239,16.0013 -37.56618,16.0013 -14.75999,0 -27.36284,-5.22323 -37.81092,-15.67131 -10.28225,-10.44809 -15.4237,-22.96914 -15.4237,-37.56329 v -52.73938 c 0,-14.59415 5.22324,-27.1152 15.67132,-37.56328 10.44808,-10.44809 22.96913,-15.67132 37.5633,-15.67132 h 52.73935 l 53.2346,-53.23459 z"
       sodipodi:nodetypes="scsscsscscssssccs" />
    <path
       id="text1-3-4-4"
       style="font-size:452.087px;font-family:Krungthep;-inkscape-font-specification:Krungthep;fill:#d19317;stroke-width:2;fill-opacity:1;stroke:#000000;stroke-opacity:1;stroke-dasharray:none"
       d="m 411.96659,119.41882 c 20.9666,24.43763 31.44993,52.70405 31.44993,84.80284 v 106.47197 c 0,17.5793 -8.78898,26.3683 -26.36831,26.3683 h -53.2346 c -17.57932,0 -26.37106,-8.789 -26.37106,-26.3683 V 124.61876 c 0.10172,-0.17897 0.14101,-0.26995 0.14306,-0.29989 v -0.003 -0.003 h -0.003 v -0.003 h -0.003 -0.003 -0.003 c -0.0594,0.021 -0.31366,0.34666 -0.31366,0.34666 l -53.19608,53.19608 h 0.14307 v 105.97396 c 1.78454,12.99697 -9.47558,30.85384 -15.35491,37.27167 1.22279,0 66.6146,67.3175 68.37216,69.2003 h 0.21735 105.97398 c 14.76,0 27.28104,-5.226 37.56328,-15.67408 10.4481,-10.61393 15.67131,-23.13496 15.67131,-37.56327 V 204.22166 c 0,-10.17745 -0.74203,-20.06861 -2.22577,-29.67534 z"
       sodipodi:nodetypes="cssssscsccccccccccccccscsscc" />
    <path
       id="text1-1-8"
       style="font-size:452.087px;font-family:Krungthep;-inkscape-font-specification:Krungthep;fill:#573d0a;stroke-width:2;fill-opacity:1;stroke:#000000;stroke-opacity:1;stroke-dasharray:none"
       d="m 26.660648,150.12274 c -5.171972,17.08496 -7.769621,35.17888 -7.769621,54.28559 v 106.46921 c 0,50.582 18.243164,94.19986 54.728553,130.85109 36.65123,36.48539 80.35092,54.82119 131.0987,54.72854 l 272.80754,-0.49803 c 16.43518,0 16.93323,-52.73932 4.48233,-53.23735 l -277.28987,0.49803 c -36.81702,0.0661 -68.16196,-13.1017 -94.0334,-39.30484 C 84.979255,377.54599 72.128382,346.5337 72.128382,310.87754 V 204.40833 c 0,-32.23892 8.171402,-55.40225 30.852898,-84.98165 z"
       sodipodi:nodetypes="csscsccscsscc" />
  </g>
</svg>
